HIERARCHY
ROOT HipCenter
{
    OFFSET 0.0 0.0 -0.0
    CHANNELS 6 Xposition Yposition Zposition Zrotation Xrotation Yrotation
    JOINT Spine
    {
        OFFSET 0.0 11.542990684509277 0.0
        CHANNELS 3 Zrotation Xrotation Yrotation
        JOINT ShoulderCenter
        {
            OFFSET 0.0 32.914581298828125 0.0
            CHANNELS 3 Zrotation Xrotation Yrotation
            JOINT LeftShoulder
            {
                OFFSET 18.777008056640625 0.0 0.0
                CHANNELS 3 Zrotation Xrotation Yrotation
                JOINT LeftElbow
                {
                    OFFSET 28.852981567382812 0.0 0.0
                    CHANNELS 3 Zrotation Xrotation Yrotation
                    JOINT LeftWrist
                    {
                        OFFSET 29.32755470275879 0.0 0.0
                        CHANNELS 3 Zrotation Xrotation Yrotation
                        JOINT LeftHand
                        {
                            OFFSET 3.7761640548706055 0.0 0.0
                            CHANNELS 3 Zrotation Xrotation Yrotation
                            End Site
                            {
                                OFFSET 1.5104655027389526 0.0 0.0
                            }
                        }
                    }
                }
            }
            JOINT RightShoulder
            {
                OFFSET -18.777008056640625 0.0 0.0
                CHANNELS 3 Zrotation Xrotation Yrotation
                JOINT RightElbow
                {
                    OFFSET -28.852981567382812 0.0 0.0
                    CHANNELS 3 Zrotation Xrotation Yrotation
                    JOINT RightWrist
                    {
                        OFFSET -29.32755470275879 0.0 0.0
                        CHANNELS 3 Zrotation Xrotation Yrotation
                        JOINT RightHand
                        {
                            OFFSET -3.7761640548706055 0.0 0.0
                            CHANNELS 3 Zrotation Xrotation Yrotation
                            End Site
                            {
                                OFFSET -1.5104655027389526 0.0 0.0
                            }
                        }
                    }
                }
            }
            End Site
            {
                OFFSET 0.0 13.16583251953125 0.0
            }
        }
    }
    JOINT LeftHip
    {
        OFFSET 13.483819961547852 0.0 0.0
        CHANNELS 3 Zrotation Xrotation Yrotation
        JOINT LeftKnee
        {
            OFFSET 0.0 -41.178192138671875 0.0
            CHANNELS 3 Zrotation Xrotation Yrotation
            JOINT LeftAnkle
            {
                OFFSET 0.0 -42.33711242675781 0.0
                CHANNELS 3 Zrotation Xrotation Yrotation
                JOINT LeftFoot
                {
                    OFFSET 0.0 -13.491167068481445 0.0
                    CHANNELS 3 Zrotation Xrotation Yrotation
                    End Site
                    {
                        OFFSET 0.0 0.0 5.396467208862305
                    }
                }
            }
        }
    }
    JOINT RightHip
    {
        OFFSET -13.483819961547852 0.0 0.0
        CHANNELS 3 Zrotation Xrotation Yrotation
        JOINT RightKnee
        {
            OFFSET 0.0 -41.178192138671875 0.0
            CHANNELS 3 Zrotation Xrotation Yrotation
            JOINT RightAnkle
            {
                OFFSET 0.0 -42.33711242675781 0.0
                CHANNELS 3 Zrotation Xrotation Yrotation
                JOINT RightFoot
                {
                    OFFSET 0.0 -13.491167068481445 0.0
                    CHANNELS 3 Zrotation Xrotation Yrotation
                    End Site
                    {
                        OFFSET 0.0 0.0 5.396467208862305
                    }
                }
            }
        }
    }
}
MOTION
Frames: 10
Frame Time: 0.03333333333333333
-39.79999923706055 -3.5 59.60000228881836 19.384513406348358 -5.488055531354142 91.5169969871675 0.724063373522288 5.904460027221112 0.04607937372937303 6.786630415288444e-07 5.3110898638892645e-08 -6.021987168275732 108.9134351563887 24.053426323739334 -80.94910610640204 -8.002315276929672e-07 -2.3771449516772814e-06 92.34071031577824 -179.99998024827406 73.31744667224717 -163.90694706504732 1.5902773407317582e-15 -1.1034765745125397e-31 -7.95138670365879e-15 -97.50256987889976 17.057796403735175 79.74909853561816 1.2114534233307652e-06 1.4360012458822889e-06 -93.31503217485235 179.99999667925738 -49.05416818604362 159.82641147788206 -2.3854160110976376e-15 -1.5902773407317584e-15 -3.310429723537619e-32 13.466793556516269 -9.74967065670823 -40.329426419314274 -49.5970540700658 33.790429922907904 -4.534261904220456 93.13642445142744 -21.542340838395397 115.36208697150745 -9.541664044390547e-15 6.361109362927032e-15 5.29668755766019e-31 5.40323851956087 -13.695237428302597 28.406000927183424 38.53491693807539 44.00977198725235 5.907334466078409 -91.52001538559784 -21.23471335624964 -110.22694974011098 -6.361109362927033e-15 0.0 0.0
-42.69999694824219 -3.4000000953674316 59.89999771118164 17.801889798694127 -5.983903905278277 91.28201471231766 0.654686685680479 5.9004482532464015 0.13722581912067836 9.687499241484068e-08 8.877783297367146e-07 -5.22888467750802 109.64139558885907 24.0805677925288 -81.280344054329 -2.6373718900896667e-06 -4.915430860105825e-06 92.14501381239565 -179.9999146114554 86.93475745256494 -165.47887833546633 -5.292641774622883e-15 -8.033611194327132e-32 1.7393658414253607e-15 -96.91601945403616 16.926470155969824 80.15498124007712 -3.9079816269514865e-07 3.8058568882871448e-06 -93.74542250806469 -179.99999627875866 -49.87061109060193 163.57651497138042 5.9635400277440935e-15 8.276074308844047e-32 1.5902773407317582e-15 13.866501099573847 -7.779876935847245 -41.063896183742656 -50.461254223686595 33.21570066896228 -3.250214413711823 92.13978746063945 -23.126054144494407 107.56903344669178 3.180554681463516e-15 1.7655625192200634e-31 6.361109362927032e-15 5.979267191826852 -12.62054700029245 28.908953711326568 40.58515534054187 44.844912883565776 4.685743188718911 -91.5597731180974 -19.996922208088197 -107.77181528938942 6.361109362927035e-15 -6.361109362927035e-15 6.361109362927035e-15
-45.79999923706055 -3.200000047683716 60.20000076293945 15.738793729820655 -5.99416706661548 91.87150490423541 1.0867220209061506 5.645537765550385 0.10577117710927868 7.049681340378344e-07 2.252214937736935e-07 -5.575258857815327 109.26959519366069 23.62383102702311 -81.1808210350454 -3.7492773906954515e-06 5.150987316543229e-06 92.23945089920574 179.99998012962635 80.77530521507418 -165.69799666556753 3.975693351829396e-16 -8.276074308844047e-33 -2.3854160110976376e-15 -97.14981239364374 16.885032522356397 80.30535214848591 -6.519858642830583e-08 3.1469186799130587e-06 -94.58524919630251 -179.9999982731809 -49.463323835015736 161.68862135609353 1.987846675914698e-15 -1.5902773407317584e-15 1.5902773407317584e-15 13.663186131670166 -6.345900629352987 -41.91881207782422 -50.375227841622674 32.38979629104749 -2.7114780885367504 92.25460932722713 -23.59140997833063 105.93645939857686 -3.1805546814635168e-15 3.1805546814635168e-15 8.827812596100317e-32 5.880913177130876 -12.001497328528107 29.194895225324032 42.558445580473354 45.2049635757968 3.450896509237235 -91.8683255429008 -19.849193992688544 -105.24899001205938 5.29668755766019e-31 6.3611093629270335e-15 -9.54166404439055e-15
-49.0 -3.0 60.29999923706055 13.671309297878034 -5.996635682070037 92.19101871030506 1.1182522447500867 5.357443753140089 0.06550590258528459 -5.585424002758733e-07 -7.355329081003288e-07 -5.231499383696517 109.03627460007402 23.24564984598553 -81.47991634873465 -2.2741578297597945e-06 2.7155317080056145e-06 93.03487365208011 -179.99999122390201 85.41921680904048 -165.63960988690894 -6.721406572936573e-15 2.4848083448933605e-17 2.0623909262614992e-15 -96.9535605248516 16.481636790921183 80.14208174205825 -1.9337187838476315e-07 6.571416028617001e-07 -94.74927488559094 -179.99999267515247 -54.124891084892965 162.463968049759 -2.9817700138720464e-15 7.95138670365879e-16 2.0690185772110117e-32 12.790876369145954 -5.21709487027111 -42.50360934469753 -49.02528869381088 32.63207125243181 -3.067341311442872 91.47530112466912 -24.09148292688182 105.02390646739671 -4.4139062980501586e-32 -3.1805546814635168e-15 -1.5902773407317584e-15 5.7027753555320055 -11.348850517030296 28.973531760416698 43.46959603418755 45.48244845942384 2.4420360333247877 -90.51687289613604 -20.971406457308873 -98.10011458438723 -3.1805546814635156e-15 -6.361109362927032e-15 6.361109362927032e-15
-52.29999923706055 -3.0 60.60000228881836 11.604759034839223 -5.991436115791416 92.85960115945842 0.4589733202705614 5.569547521134508 0.10286470906315774 -6.986472291645694e-07 -2.632219576229345e-07 -5.603596837124509 109.6829176809518 23.543441080865037 -80.93824221544138 4.084344020624172e-09 9.475053646059376e-07 93.16917889050536 179.99994669290984 89.33015848800355 -167.52386811356016 -7.752602036067322e-15 3.1805546814635168e-15 3.975693351829398e-16 -95.99653395496452 16.334928461064948 79.96290608954898 -6.927923703264413e-07 -5.801959570848315e-07 -95.55135233143936 -179.99999908296823 -56.92887869405739 164.41239058628017 -8.348956038841732e-15 1.5902773407317582e-15 2.3854160110976376e-15 12.762924756616771 -4.458983501252553 -43.99351254394974 -48.517632801401504 31.097428432093164 -3.085673581210094 91.818389822472 -24.467950385900146 106.32778569153915 3.1805546814635168e-15 -3.1805546814635168e-15 8.827812596100317e-32 5.871192135673656 -10.85785550450177 29.464380392853244 44.5678586399409 45.214750955950585 1.232540093145712 -90.79898161884992 -20.968998003794177 -95.6344261688436 3.1805546814635176e-15 0.0 0.0
-55.5 -2.8999998569488525 60.79999923706055 9.46233015785156 -5.4369335537647565 93.3794318995765 -0.4022321396358491 5.416394614478512 0.1663729092230279 1.7898079324064595e-07 2.4942564217926674e-07 -6.094005123125133 109.60933960597681 23.35654979884581 -81.02539821106738 5.805114334766463e-06 -5.651697085539789e-06 93.25671062296345 4.0359244981988605e-05 83.58169242664972 11.224241567504603 -5.565970692561153e-15 1.9310840053969443e-31 -3.975693351829395e-15 -95.58327641064544 15.800086221021441 79.84613384663353 4.043323771935454e-07 1.4619507531372997e-06 -95.55216668222138 179.99999665201284 -58.015675108878845 164.66107905169144 1.9878466759146977e-16 0.0 0.0 11.514614505770256 -3.5744600222403795 -43.52509752150129 -45.64160835644959 31.260697234040617 -3.892165932902293 91.17032833843668 -26.645632428100754 106.46504553422129 -6.3611093629270335e-15 3.531125038440127e-31 -6.3611093629270335e-15 5.387269714037497 -10.342622266355571 29.587578088081838 44.3981829479489 45.21028452085375 1.247545524971216 -90.98115811301633 -22.444173578737022 -95.7960214726967 6.361109362927033e-15 3.1805546814635164e-15 -1.7655625192200634e-31
-58.70000076293945 -2.8000001907348633 61.099998474121094 7.49585705624919 -5.958029199760753 93.66220176712467 0.6647155350796811 5.155405279894767 0.06965873983084778 8.789978773508741e-07 3.613861986918845e-07 -5.781205216223653 108.95767768132899 22.90235874258287 -80.59268632400574 1.7813742231097498e-06 -5.23501059423304e-06 92.50734111792059 1.0351827941624864e-05 81.98510600429337 10.85637452048193 -2.3854160110976384e-15 1.6552148617688095e-32 -7.951386703658794e-16 -96.43262064708756 15.896703000702697 79.58374717134714 -1.8219138071677283e-06 6.878660998444988e-07 -95.22839507525788 179.99999400711872 -60.79212902806343 162.96634022668758 5.963540027744094e-16 0.0 0.0 11.766542100682114 -2.987771155792586 -43.63685378536107 -43.59111690697014 30.525078620074822 -4.8686781779284996 90.9329959809984 -27.198937201010548 109.35963839640115 0.0 0.0 -1.5902773407317584e-15 6.171636844847257 -9.838470552355798 29.477008686690898 42.97474593735526 45.00704769667304 1.9529172989196406 -89.01854014225759 -23.267282760879457 -92.45390439153815 -3.1805546814635164e-15 3.1805546814635164e-15 4.770832022195274e-15
-62.0 -2.8999998569488525 61.29999923706055 5.511470663645352 -5.486146843738855 93.90649734106835 0.5737598988659967 5.112213113323563 0.024688615135731735 -2.4853656500591706e-07 7.439453265597773e-09 -5.952782627823156 108.36213123639935 22.73602811556862 -80.06572171139986 4.3744263843875015e-06 1.5127813215712103e-06 92.04654150196885 5.790207334105935e-05 86.95000443239175 11.572146553426828 -1.3914926731402888e-15 3.1805546814635168e-15 3.975693351829396e-15 -96.7663048608209 15.900426595222596 79.08321680248885 -4.873209287431382e-08 -1.037890402216018e-06 -94.9759539194436 -179.99999958642118 -65.70623943741941 164.89457719134785 -1.8387581752210955e-15 -1.275894789280124e-32 7.951386703658792e-16 10.885219467996802 -2.666325689395424 -43.947764732496516 -41.14232891588616 29.324319110478562 -5.748737351229953 93.23274335196967 -27.416974962276942 117.25327711704566 3.1805546814635168e-15 -3.1805546814635168e-15 -3.1805546814635168e-15 5.825260807152466 -9.405419429917782 30.206577088702343 42.05649266671387 44.089724965641665 2.535910058207302 -90.65650793940391 -23.65989742763081 -98.10677667391349 3.1805546814635168e-15 -8.827812596100317e-32 -3.1805546814635168e-15
-65.10000610351562 -3.0 61.5 3.4832562746776143 -5.453820939629877 94.46085321715445 -3.3896126708570997 5.126584537129872 0.43711940920331027 -1.7134228487922745e-07 6.136796181591685e-08 -6.245742107726329 111.96739836985573 22.77215989394301 -79.67117088166293 -1.7319524696346752e-06 -3.0251795066246396e-06 91.15328508292552 -9.463649946539697e-06 78.22140066832114 9.767522191742671 2.385416011097637e-15 1.5902773407317582e-15 -3.310429723537619e-32 -93.1034677965393 15.377572821526195 78.82219155922488 2.7787216100602355e-06 -1.9324944691691862e-06 -94.53797836463595 -179.99999427027828 -66.72948002972328 163.2303726298834 -1.093315671753084e-15 0.0 0.0 10.23304658696459 -2.86400986851964 -42.600815615573396 -37.244828141019156 29.0911637729197 -7.337224512709709 95.17466376107069 -28.768921979826132 124.18459201813639 -1.5902773407317584e-15 0.0 0.0 5.866813923588534 -9.11203741772256 30.156021028791812 39.61178030584547 42.80062620776139 4.200165481412424 -92.08008108350941 -24.575846314965737 -105.55187963019362 -3.1805546814635168e-15 -8.827812596100317e-32 3.1805546814635168e-15
-68.0 -3.0999999046325684 61.69999694824219 1.992101366999519 -5.953542294851685 94.68740833335399 -3.577902820631446 5.267550557196562 0.5760325882342937 7.796567371049346e-07 -7.341299306130205e-07 -6.3216045545542485 113.23321865217396 23.37989823701736 -79.06283185028816 7.136696693114643e-07 -2.201031077558566e-06 89.5425622969046 -8.764925555308629e-06 70.20416484125411 10.063097558629801 1.5902773407317582e-15 0.0 0.0 -91.98355451400319 14.85813119013185 77.86580211494059 -2.812357254702823e-06 -2.1384499920946278e-06 -93.39700087768891 179.99999987876183 -74.04116071009378 165.71371508350214 8.347403033626174e-15 -3.4787316828507215e-16 2.5340763010274843e-32 10.043865360079401 -2.5285364739551826 -41.023270333941696 -32.53388456805196 28.319419340593843 -9.115548495324285 99.13700055932085 -30.571858747437854 133.1865798081673 0.0 -3.1805546814635168e-15 0.0 6.663852818982647 -8.466312711233092 30.1936169626207 36.432521055263905 41.70844739087722 6.520125427957768 -94.56677493325773 -24.87260999485279 -116.46851455801293 6.361109362927035e-15 -3.1805546814635176e-15 1.7655625192200634e-31
